<svg xmlns="http://www.w3.org/2000/svg" width="48" height="48" viewBox="0 0 48 48" fill="none">
  <path d="M14 12V8a2 2 0 0 1 2-2h16a2 2 0 0 1 2 2v4" stroke="#1A4B8C" stroke-width="2.5" stroke-linecap="round" stroke-linejoin="round"/>
  <path d="M10 14a4 4 0 0 1 4-4h20a4 4 0 0 1 4 4v26a4 4 0 0 1-4 4H14a4 4 0 0 1-4-4V14z" stroke="#1A4B8C" stroke-width="2.5" stroke-linecap="round" stroke-linejoin="round"/>
  <rect x="18" y="6" width="12" height="6" rx="2" stroke="#1A4B8C" stroke-width="2" stroke-linecap="round" stroke-linejoin="round" fill="rgba(26,75,140,0.08)"/>
  <path d="M30 6h6v4h-6z" stroke="#1A4B8C" stroke-width="2" stroke-linejoin="round" fill="#1A4B8C"/>
  <line x1="16" y1="20" x2="22" y2="20" stroke="#00A86B" stroke-width="2.5" stroke-linecap="round"/>
  <line x1="16" y1="26" x2="20" y2="26" stroke="#00A86B" stroke-width="2" stroke-linecap="round"/>
  <line x1="16" y1="32" x2="22" y2="32" stroke="#00A86B" stroke-width="2.5" stroke-linecap="round"/>
  <path d="M31 23c0 3.314-2.686 6-6 6s-6-2.686-6-6c0-2.5 6-7 6-7s6 4.5 6 7z" stroke="#00A86B" stroke-width="2" stroke-linejoin="round" fill="rgba(0,168,107,0.12)"/>
</svg>